<?xml version="1.0" encoding="UTF-8" standalone="no"?>
<!-- Created with Inkscape (http://www.inkscape.org/) -->

<svg
   xmlns:dc="http://purl.org/dc/elements/1.1/"
   xmlns:cc="http://creativecommons.org/ns#"
   xmlns:rdf="http://www.w3.org/1999/02/22-rdf-syntax-ns#"
   xmlns:svg="http://www.w3.org/2000/svg"
   xmlns="http://www.w3.org/2000/svg"
   xmlns:sodipodi="http://sodipodi.sourceforge.net/DTD/sodipodi-0.dtd"
   xmlns:inkscape="http://www.inkscape.org/namespaces/inkscape"
   width="64px"
   height="64px"
   id="svg2984"
   version="1.1"
   inkscape:version="0.48.4 r9939"
   sodipodi:docname="bn.svg">
  <defs
     id="defs2986" />
  <sodipodi:namedview
     id="base"
     pagecolor="#ffffff"
     bordercolor="#666666"
     borderopacity="1.0"
     inkscape:pageopacity="0.0"
     inkscape:pageshadow="2"
     inkscape:zoom="3.8890873"
     inkscape:cx="33.673403"
     inkscape:cy="23.77917"
     inkscape:current-layer="layer1"
     showgrid="false"
     inkscape:document-units="px"
     inkscape:grid-bbox="true"
     showguides="false"
     inkscape:window-width="761"
     inkscape:window-height="678"
     inkscape:window-x="740"
     inkscape:window-y="166"
     inkscape:window-maximized="0">
    <inkscape:grid
       type="xygrid"
       id="grid2998"
       empspacing="1"
       visible="true"
       enabled="true"
       snapvisiblegridlinesonly="true" />
  </sodipodi:namedview>
  <metadata
     id="metadata2989">
    <rdf:RDF>
      <cc:Work
         rdf:about="">
        <dc:format>image/svg+xml</dc:format>
        <dc:type
           rdf:resource="http://purl.org/dc/dcmitype/StillImage" />
        <dc:title />
      </cc:Work>
    </rdf:RDF>
  </metadata>
  <g
     id="layer1"
     inkscape:label="Layer 1"
     inkscape:groupmode="layer">
    <path
       style="fill:#000000;fill-opacity:1;stroke:#000000;stroke-width:2;stroke-linecap:butt;stroke-linejoin:miter;stroke-miterlimit:4;stroke-opacity:1;stroke-dasharray:none"
       d="m 34,34 c 0.826104,3.389714 0.777936,6.846045 -4,8 -9.270416,3.306268 -10,6 -10,14 l 36,0 C 50.894719,40.205666 56.667576,16.554899 36,12 c 0,0 -0.79815,-6.2018504 -2,-5 -1,1 -1,5 -1,5 -1.040898,-0.268186 -1.664443,-0.715239 -5,0 0,0 -2,-5.490712 -2,-4 0,2 -1,4 -1,4 -8.041683,11.966924 -4.713687,-0.446022 -16,25 -1.6635163,3.750549 2.527988,5.940317 5,5 l 5,-2 c 0,0 -2.231839,3.489755 -1,4 1.742084,0.721595 5,-4 5,-4 5.181385,-4.77801 8.894139,-4.880901 11,-6 6.157763,0.999356 6.276733,-7.306839 4,-10"
       id="path3085"
       inkscape:connector-curvature="0"
       sodipodi:nodetypes="cccccsccscsccsccc" />
    <path
       style="fill:#ffffff;stroke:#ffffff;stroke-width:1px;stroke-linecap:butt;stroke-linejoin:miter;stroke-opacity:1;fill-opacity:1"
       d="m 20.636364,26.136364 c -0.122678,-0.492597 0.205454,-1.122514 1.227272,-2.159091 1.021818,-1.036577 1.670493,-0.868124 1.798408,-0.842248 0.479575,0.09701 0.573793,1.125462 -0.548407,2.069521 -0.918697,0.77286 -2.354595,1.424415 -2.477273,0.931818 z"
       id="path3118"
       inkscape:connector-curvature="0"
       sodipodi:nodetypes="zzssz" />
    <path
       style="fill:#000000;stroke:#ffffff;stroke-width:1px;stroke-linecap:butt;stroke-linejoin:miter;stroke-opacity:1;fill-opacity:1"
       d="m 11.07265,38.034938 c -0.137021,-0.314813 -0.23987,-1.167296 0.122854,-1.187414 0.392434,-0.02177 0.750908,0.482866 0.888257,0.945604 0.15968,0.537971 -0.151004,0.830963 -0.402239,0.875613 -0.251235,0.04465 -0.456769,-0.28434 -0.608872,-0.633803 z"
       id="path3120"
       inkscape:connector-curvature="0"
       sodipodi:nodetypes="ssszs" />
    <path
       style="fill:none;stroke:#ffffff;stroke-width:3;stroke-linecap:round;stroke-linejoin:miter;stroke-miterlimit:4;stroke-opacity:1;stroke-dasharray:none"
       d="M 52.968727,53.457681 C 49.176669,38.200508 49.772205,18.464568 38.312331,15.402479"
       id="path6434"
       inkscape:connector-curvature="0"
       sodipodi:nodetypes="cc" />
  </g>
</svg>
